<svg width="403" height="296" viewBox="0 0 403 296" fill="none" xmlns="http://www.w3.org/2000/svg">
<path d="M402.028 291.441H0.361481V296H402.028V291.441Z" fill="#D5E5F1"/>
<path d="M350.911 267.112C350.911 267.112 337.389 262.861 327.093 267.061C327.093 267.061 338.772 270.851 350.911 267.112Z" fill="#B3AA8F"/>
<path d="M329.347 222.295C329.347 222.295 324.123 235.919 309.576 231.207C309.576 231.207 306.503 231.668 306.503 233.102C306.503 234.536 302.508 227.212 311.471 222.295C320.435 217.377 330.064 217.173 330.986 219.529C331.908 221.885 334.213 259.019 333.701 268.649H332.062C332.062 268.597 331.703 221.782 329.347 222.295Z" fill="#57BC7B"/>
<path d="M332.83 212.153C330.32 213.638 323.303 216.199 315.364 205.085C315.159 204.828 314.801 204.726 314.493 204.931C314.032 205.238 313.264 205.699 312.547 206.211C312.035 206.621 311.318 206.058 311.574 205.443C312.649 202.933 315.108 199.502 319.974 200.167C327.503 201.141 335.493 206.775 335.698 210.309C335.903 213.485 335.596 265.473 335.545 269.366C335.545 269.724 335.237 270.031 334.879 270.031H334.315C333.957 270.031 333.65 269.724 333.65 269.366L333.803 212.716C333.803 212.204 333.291 211.897 332.83 212.153Z" fill="#57BC7B"/>
<path d="M365.611 198.836C364.535 200.219 363.408 200.321 362.589 200.014C361.616 199.655 360.489 200.065 359.874 200.885C357.416 204.214 351.884 210.821 347.633 209.029C345.584 208.158 344.098 207.441 342.972 206.929C340.974 206.007 340.103 205.751 339.642 206.673C338.925 208.107 338.772 268.751 338.772 268.751L336.774 268.649L336.928 205.187C336.928 205.187 337.389 201.909 341.384 200.987C345.379 200.065 354.086 191.87 356.442 191.87C357.569 191.87 360.13 192.843 362.281 194.124C364.74 195.455 366.738 197.351 365.611 198.836Z" fill="#57BC7B"/>
<path d="M365.611 198.836C364.535 200.219 363.408 200.321 362.589 200.014C361.616 199.655 360.489 200.065 359.874 200.885C357.416 204.214 351.884 210.821 347.633 209.029C345.584 208.158 344.098 207.441 342.972 206.929C345.737 207.185 350.142 207.236 351.423 205.494C353.062 203.241 356.596 194.585 362.384 193.97C364.74 195.455 366.738 197.35 365.611 198.836Z" fill="#3F8A59"/>
<path d="M356.238 229.875C355.879 230.131 355.418 229.977 355.264 229.619C355.111 229.311 355.008 228.799 355.111 228.031C355.213 227.416 355.008 226.802 354.65 226.29C353.523 224.804 351.269 221.577 350.552 218.863C350.552 218.811 350.501 218.76 350.501 218.709C350.398 218.35 349.989 218.197 349.733 218.453C349.067 218.965 348.145 219.836 347.991 220.553C347.735 221.731 344.098 267.573 344.098 267.573L342.101 267.675C342.101 267.675 346.454 220.45 346.454 219.272C346.454 218.094 341.537 208.209 353.267 213.894C353.267 213.894 357.262 212.511 359.157 216.507C359.362 216.916 359.516 217.326 359.618 217.787C360.694 221.731 359.311 227.672 356.238 229.875Z" fill="#57BC7B"/>
<path d="M362.179 194.021C361.923 193.97 361.667 193.919 361.411 193.919H361.001C360.847 193.919 360.745 193.919 360.591 193.919C360.438 193.919 360.335 193.919 360.181 193.919L359.772 193.97L359.362 194.021C359.208 194.021 359.106 194.072 358.952 194.072C358.696 194.124 358.44 194.175 358.184 194.226L357.416 194.431L357.006 194.533C356.903 194.585 356.75 194.636 356.647 194.636L355.879 194.892C353.881 195.558 351.884 196.429 349.989 197.402C349.528 197.658 349.067 197.914 348.555 198.17C348.094 198.426 347.633 198.682 347.172 198.938L345.789 199.758C345.328 200.014 344.867 200.27 344.406 200.577L343.074 201.448C342.613 201.755 342.152 202.011 341.742 202.319L339.079 204.111L341.691 202.216C342.101 201.909 342.562 201.602 343.023 201.294L344.354 200.424C344.559 200.27 344.815 200.116 345.02 199.963L345.686 199.553L347.069 198.733C347.53 198.426 347.991 198.221 348.452 197.965C348.913 197.709 349.374 197.453 349.886 197.197C350.859 196.736 351.781 196.224 352.806 195.865C353.318 195.66 353.779 195.455 354.291 195.25L355.059 194.994L355.418 194.841C355.52 194.789 355.674 194.789 355.828 194.738L356.596 194.533C356.75 194.482 356.852 194.431 357.006 194.431L357.416 194.328L358.184 194.124C358.44 194.072 358.696 194.021 358.952 193.97C359.106 193.97 359.208 193.919 359.362 193.919L359.772 193.867L360.181 193.816C360.335 193.816 360.438 193.816 360.591 193.816C360.745 193.816 360.847 193.816 361.001 193.816L361.411 193.867C361.667 193.919 361.923 193.919 362.179 194.021Z" fill="#2F5126"/>
<path d="M356.238 229.875C355.879 230.131 355.418 229.977 355.264 229.619C355.111 229.312 355.008 228.799 355.111 228.031C355.213 227.416 355.008 226.802 354.65 226.29C353.523 224.804 351.269 221.577 350.552 218.863C351.167 218.965 353.267 219.836 355.52 218.197C357.159 217.019 358.696 217.326 359.618 217.736C360.694 221.731 359.311 227.673 356.238 229.875Z" fill="#3F8A59"/>
<path d="M338.772 200.167C338.772 200.167 326.069 197.811 324.481 182.957C324.481 182.957 325.198 182.035 322.842 182.957C320.486 183.879 321.664 180.345 322.842 179.679C324.02 178.962 326.837 176.145 328.732 177.118C330.628 178.092 336.723 184.187 336.723 184.187C336.723 184.187 340.923 190.077 340.923 191.255C340.923 192.433 340.923 200.167 340.923 200.167C340.923 200.167 343.945 215.943 342.972 221.577C341.998 227.211 340.769 268.341 341.691 270.953H339.796C339.796 270.953 340.359 225.111 340.82 222.755C341.281 220.399 341.384 206.314 338.772 200.167Z" fill="#57BC7B"/>
<path d="M306.452 233.204C306.401 232.641 306.452 232.026 306.554 231.463C306.657 230.9 306.861 230.336 307.118 229.773C307.63 228.697 308.347 227.724 309.166 226.853C310.857 225.163 312.957 223.934 315.108 223.012C317.31 222.09 319.564 221.424 321.869 220.963C324.174 220.451 326.53 220.143 328.886 219.938L327.145 220.195C326.581 220.246 325.967 220.399 325.403 220.451C324.84 220.553 324.225 220.656 323.662 220.758L322.791 220.912L321.92 221.117C319.615 221.629 317.362 222.295 315.21 223.217C314.135 223.678 313.059 224.19 312.086 224.804C311.062 225.419 310.14 226.136 309.32 226.956C308.501 227.775 307.783 228.748 307.271 229.773C306.708 230.848 306.349 232.026 306.452 233.204Z" fill="#2F5126"/>
<path d="M311.727 206.16C312.035 205.75 312.444 205.392 312.854 205.033C313.264 204.675 313.674 204.367 314.135 204.111C315.057 203.548 316.03 203.138 317.054 202.933C318.079 202.677 319.154 202.575 320.23 202.626C321.306 202.677 322.33 202.882 323.354 203.138C325.403 203.753 327.298 204.726 329.04 205.904C330.781 207.082 332.42 208.465 333.906 209.95L332.728 208.926C332.318 208.567 331.908 208.26 331.498 207.953C330.679 207.287 329.808 206.672 328.937 206.109C327.196 204.931 325.301 204.009 323.252 203.394C322.227 203.087 321.203 202.933 320.179 202.831C319.154 202.78 318.079 202.831 317.054 203.087C316.03 203.292 315.057 203.702 314.135 204.214C313.264 204.726 312.393 205.341 311.727 206.16Z" fill="#2F5126"/>
<path d="M353.216 213.741C352.908 213.843 352.601 213.946 352.294 214.099C351.986 214.202 351.73 214.355 351.423 214.509C350.859 214.816 350.347 215.175 349.835 215.585C349.323 215.994 348.913 216.455 348.555 216.968L348.298 217.377L348.094 217.787C348.042 217.838 348.042 217.941 347.991 217.992L347.889 218.197C347.837 218.351 347.786 218.504 347.735 218.658C347.889 218.043 348.042 217.377 348.401 216.865C348.759 216.302 349.169 215.79 349.681 215.38C350.194 214.97 350.757 214.611 351.32 214.355C351.986 214.048 352.601 213.843 353.216 213.741Z" fill="#2F5126"/>
<path d="M321.562 182.855C321.869 182.445 322.227 182.087 322.637 181.728C323.047 181.421 323.457 181.114 323.918 180.858C324.84 180.397 325.864 180.089 326.94 180.089C327.964 180.038 329.04 180.243 330.013 180.602C330.986 180.96 331.908 181.421 332.779 182.036C333.65 182.65 334.469 183.265 335.186 183.982C335.391 184.136 335.545 184.341 335.75 184.494L336.313 185.058C336.467 185.263 336.672 185.416 336.825 185.621L337.337 186.185C338.72 187.721 339.95 189.411 341.076 191.102C340.462 190.282 339.847 189.411 339.233 188.643L338.772 188.028L338.259 187.414L337.747 186.85C337.593 186.645 337.389 186.492 337.235 186.287C335.852 184.75 334.367 183.367 332.676 182.189C331.806 181.626 330.935 181.114 329.962 180.806C328.989 180.448 328.015 180.243 326.991 180.243C324.84 180.294 322.893 181.319 321.562 182.855Z" fill="#2F5126"/>
<path d="M328.425 289.956L348.042 290.007C351.525 287.344 352.447 273.566 352.703 268.751C352.755 267.829 352.037 267.112 351.116 267.112L326.991 267.061C326.223 267.061 325.506 267.624 325.403 268.392C324.225 277.305 328.425 289.956 328.425 289.956Z" fill="#D5E5F1"/>
<path d="M328.425 289.956H333.189C329.706 280.48 330.986 270.954 331.754 267.061H326.991C326.223 267.061 325.506 267.624 325.403 268.392C324.225 277.305 328.425 289.956 328.425 289.956Z" fill="#B9D6E8"/>
<path d="M230.595 218.197L256.922 102.337L193.717 102.952L164.265 218.863L230.595 218.197Z" fill="#D5E5F1"/>
<path d="M190.08 218.607L139.167 219.119C136.35 219.17 134.045 216.865 133.994 214.048V212.358C133.943 209.541 136.248 207.236 139.065 207.185L189.978 206.673L190.08 218.607Z" fill="#D5E5F1"/>
<path d="M256.922 102.337L233.31 206.263L230.595 218.197C230.595 218.197 228.802 213.229 227.624 206.314C225.832 196.019 225.268 181.523 233.771 172.867C233.771 172.867 231.056 139.523 240.532 131.072C240.481 131.072 236.639 102.542 256.922 102.337Z" fill="#B9D6E8"/>
<path d="M233.31 206.263L230.595 218.197L190.08 218.607L189.978 206.672L233.31 206.263Z" fill="#B9D6E8"/>
<path d="M192.418 218.522L181.713 218.625L182.286 277.835L192.991 277.732L192.418 218.522Z" fill="#CFDBDA"/>
<path d="M217.523 275.037L157.903 275.614L157.949 280.378L217.569 279.801L217.523 275.037Z" fill="#8B9594"/>
<path d="M167.324 285.356C167.814 283.118 166.397 280.907 164.159 280.416C161.921 279.926 159.709 281.343 159.219 283.582C158.729 285.82 160.146 288.031 162.384 288.522C164.622 289.012 166.834 287.595 167.324 285.356Z" fill="#232625"/>
<path d="M199.658 284.168C199.658 286.473 197.814 288.368 195.509 288.368C193.205 288.368 191.309 286.524 191.309 284.22C191.309 281.915 193.153 280.02 195.458 280.02C197.763 280.02 199.658 281.863 199.658 284.168Z" fill="#232625"/>
<path d="M216.356 283.963C216.356 286.268 214.512 288.163 212.207 288.163C209.902 288.163 208.007 286.319 208.007 284.014C208.007 281.71 209.851 279.814 212.156 279.814C214.461 279.814 216.356 281.658 216.356 283.963Z" fill="#232625"/>
<path d="M181.731 218.709L181.834 231.258C181.834 231.258 186.751 232.385 187.826 236.534C189.056 241.297 192.641 240.734 192.641 240.734L192.436 218.607L181.731 218.709Z" fill="#949D9D"/>
<path d="M168.26 261.222L171.436 271.158L161.448 274.334L157.914 263.526L168.26 261.222Z" fill="#FBD2C4"/>
<path d="M171.538 269.058L176.456 278.278L148.08 291.288C148.08 291.288 143.419 288.778 155.66 278.79C157.402 277.356 158.631 275.461 159.194 273.258L159.502 272.08L171.538 269.058Z" fill="#2E555C"/>
<path d="M171.231 265.985L157.555 268.853L128.206 193.406C125.594 186.697 130.409 179.423 137.58 179.219L193.819 177.528L191.668 206.416L156.019 205.853L171.231 265.985Z" fill="#2F363C"/>
<path d="M148.182 271.568L146.39 281.863L136.094 280.071L137.938 268.853L148.182 271.568Z" fill="#FBD2C4"/>
<path d="M147.465 280.071L147.568 290.52L116.375 288.932C116.375 288.932 113.404 284.527 128.872 281.351C131.075 280.89 133.072 279.763 134.558 278.073L135.326 277.202L147.465 280.071Z" fill="#2E555C"/>
<path d="M224.295 176.811C224.295 176.811 224.551 201.499 206.317 206.211L171.59 206.57L148.49 274.385L135.685 272.695L151.051 184.545C151.665 181.011 154.738 178.348 158.324 178.297L224.295 176.811Z" fill="#3F4650"/>
<path d="M148.899 196.838L139.936 223.524L142.907 231.156L148.899 196.838Z" fill="#1C1831"/>
<path d="M158.887 123.645C158.887 123.645 153.048 119.137 153.458 111.506C153.868 103.925 159.143 115.501 159.143 115.501C159.143 115.501 157.914 111.198 159.912 112.479C161.909 113.708 162.012 121.596 162.012 121.596L158.887 123.645Z" fill="url(#paint0_linear)"/>
<path d="M185.778 118.472C185.47 118.165 184.958 118.216 184.753 118.626L170.873 144.082C170.821 144.133 170.77 144.133 170.719 144.082L162.421 120.93L157.504 123.287L163.548 159.397C164.163 163.187 169.08 164.365 171.282 161.189L188.441 138.857C188.441 138.857 191.207 124.413 185.778 118.472Z" fill="#E8EBEE"/>
<path d="M210.414 109.918C210.414 109.918 235.922 112.325 237.51 116.32C239.098 120.316 222.349 150.587 225.576 174.506H188.083C188.083 174.506 188.083 131.225 184.651 120.162C184.395 119.291 184.804 118.369 185.624 118.011C190.592 115.655 206.368 108.586 210.414 109.918Z" fill="#E7E9EC"/>
<path d="M216.663 109.047C216.663 109.047 220.863 112.172 220.146 112.633C219.429 113.094 213.436 122.723 213.436 122.723L210.312 115.86L216.663 109.047Z" fill="#B0B4BD"/>
<path d="M208.775 115.911L205.292 121.801L201.195 112.684C201.195 112.684 204.319 109.098 205.036 109.098L208.775 115.911Z" fill="#B0B4BD"/>
<path d="M210.517 122.467V158.321L206.778 165.338L203.039 159.243C203.039 159.243 200.785 137.321 206.778 122.467L205.036 117.447L209.134 114.938L213.795 117.857L210.517 122.467Z" fill="#2E555C"/>
<path d="M215.639 97.4203L216.561 112.172C216.612 113.35 215.997 114.425 214.922 114.886C212.156 116.167 206.88 117.806 205.19 113.094C204.934 112.325 204.831 111.506 204.985 110.686L206.931 97.7788L215.639 97.4203Z" fill="url(#paint1_linear)"/>
<path d="M203.09 93.5276C203.09 93.5276 197.814 94.3471 197.558 85.2812C197.353 78.6738 205.036 75.8567 212.514 77.3421C219.993 78.7763 223.783 86.2032 217.585 96.2423C214.563 101.006 206.88 98.8033 203.09 93.5276Z" fill="#1D2044"/>
<path d="M200.427 87.074C200.427 87.074 195.766 105.923 206.47 105.872C217.175 105.821 215.69 97.2668 215.69 97.2668C215.69 97.2668 218.763 96.6009 217.893 93.7326C217.278 91.6838 215.383 93.0155 214.307 93.9375C214.051 94.1936 213.641 93.9887 213.641 93.6301C213.692 91.5813 213.436 86.9716 210.312 86.9716C206.266 86.9203 204.37 86.5106 200.427 87.074Z" fill="url(#paint2_linear)"/>
<path d="M203.09 98.8032C202.731 98.752 202.424 98.5983 202.219 98.3422C201.605 97.5227 202.168 95.9861 202.219 95.9349C202.27 95.8325 202.373 95.7813 202.475 95.8325C202.578 95.8837 202.629 95.9861 202.578 96.0886C202.578 96.0886 202.014 97.4715 202.527 98.1374C202.783 98.4447 203.192 98.5471 203.807 98.4447C203.909 98.4447 204.012 98.4959 204.012 98.5983C204.012 98.7008 203.961 98.8032 203.858 98.8032C203.602 98.8544 203.346 98.8544 203.09 98.8032Z" fill="#313361"/>
<path d="M204.37 102.235C203.551 102.081 203.141 101.467 203.09 101.416C203.039 101.313 203.039 101.211 203.141 101.159C203.244 101.108 203.346 101.108 203.397 101.211C203.397 101.211 203.756 101.774 204.422 101.877C204.934 101.928 205.497 101.723 206.061 101.262C206.163 101.211 206.266 101.211 206.317 101.262C206.368 101.364 206.368 101.467 206.317 101.518C205.651 102.081 204.985 102.338 204.37 102.235Z" fill="#313361"/>
<path d="M201.502 94.6032C201.451 94.9105 201.246 95.1154 201.041 95.1154C200.836 95.0642 200.734 94.808 200.785 94.5007C200.836 94.1934 201.041 93.9885 201.246 93.9885C201.451 93.9885 201.553 94.2959 201.502 94.6032Z" fill="#313361"/>
<path d="M206.931 95.2179C206.88 95.5252 206.675 95.7301 206.47 95.7301C206.266 95.6789 206.163 95.4228 206.214 95.1155C206.266 94.8082 206.47 94.6033 206.675 94.6033C206.88 94.6545 206.983 94.9106 206.931 95.2179Z" fill="#313361"/>
<path d="M216.663 108.023C216.663 108.023 220.863 111.147 220.146 111.608C219.429 112.069 213.436 121.698 213.436 121.698L210.312 114.835L216.663 108.023Z" fill="#E8EBEE"/>
<path d="M209.083 114.886L205.6 120.777L201.502 111.659C201.502 111.659 204.627 108.074 205.344 108.074L209.083 114.886Z" fill="#E8EBEE"/>
<path d="M189.209 177.938C201.195 178.399 213.129 178.399 225.115 177.938V174.455C213.129 174.455 201.195 174.455 189.209 174.455V177.938Z" fill="#4C3629"/>
<path d="M201.434 178.276H207.478V174.486H201.434V178.276Z" fill="#D79B3E"/>
<path d="M219.656 178.086H220.834V174.5H219.656V178.086Z" fill="#3F4650"/>
<path d="M213.728 178.307H214.906V174.465H213.728V178.307Z" fill="#3F4650"/>
<path d="M197.299 178.307H198.477V174.465H197.299V178.307Z" fill="#3F4650"/>
<path d="M191.793 178.307H192.971V174.465H191.793V178.307Z" fill="#3F4650"/>
<path d="M263.325 121.238C263.325 121.238 269.164 116.73 268.754 109.098C268.344 101.518 263.068 113.094 263.068 113.094C263.068 113.094 264.298 108.791 262.3 110.072C260.303 111.301 260.2 119.189 260.2 119.189L263.325 121.238Z" fill="url(#paint3_linear)"/>
<path d="M236.434 116.064C236.741 115.757 237.254 115.808 237.459 116.218L246.627 142.033C246.678 142.084 246.729 142.084 246.781 142.033L259.842 118.574L264.759 120.93L252.261 156.682C251.646 160.472 246.729 161.65 244.527 158.475L230.39 137.526C230.339 137.577 231.005 122.057 236.434 116.064Z" fill="#E8EBEE"/>
<path d="M76.8434 174.491L27.9284 174.964L29.0457 290.414L77.9607 289.941L76.8434 174.491Z" fill="#DFECF8"/>
<path d="M120.28 174.108L76.7946 174.529L77.9121 289.978L121.398 289.557L120.28 174.108Z" fill="#B8C2CD"/>
<path d="M217.965 165.014L21.0242 166.92L21.103 175.064L218.044 173.158L217.965 165.014Z" fill="#A7B1BA"/>
<path d="M281.791 164.377L217.971 164.995L218.05 173.139L281.87 172.521L281.791 164.377Z" fill="#71787E"/>
<path d="M227.471 172.918L225.575 182.087L205.19 281.453L204.831 283.144L203.192 291.288L198.275 291.134L199.607 283.912L199.914 282.222L218.302 182.24L220.044 172.97L227.471 172.918Z" fill="#B8C2CD"/>
<path d="M294.62 288.266H290.522L288.832 281.095L288.474 279.763L265.425 183.521L262.864 172.714L270.495 172.611L272.749 183.47L292.827 279.712L293.083 281.044L294.62 288.266Z" fill="#B8C2CD"/>
<path d="M220.044 172.97L227.471 172.918L225.575 182.087L218.302 182.24L220.044 172.97Z" fill="#788896"/>
<path d="M272.749 183.47L265.425 183.521L262.864 172.714L270.495 172.611L272.749 183.47Z" fill="#788896"/>
<path d="M159.451 156.016L80.4182 156.784C79.0352 156.784 77.9596 155.709 77.9084 154.326L77.3962 102.235C77.3962 100.852 78.4718 99.7764 79.8547 99.7252L158.887 98.9569L159.451 156.016Z" fill="#B0D9E1"/>
<path d="M159.451 156.016L162.114 155.965C162.882 155.965 163.548 155.299 163.548 154.531L163.036 100.34C163.036 99.5716 162.37 98.9058 161.602 98.9058L158.938 98.957L159.451 156.016Z" fill="#2CC1DB"/>
<path d="M113.096 138.806L106.54 166.055L120.165 165.901L125.338 138.703L113.096 138.806Z" fill="#2CC1DB"/>
<path d="M125.594 165.85L120.165 165.901L125.338 138.703L125.594 165.85Z" fill="#2294A8"/>
<path d="M120.423 130.518C125.233 129.787 128.541 125.295 127.81 120.484C127.079 115.674 122.587 112.367 117.776 113.097C112.966 113.828 109.659 118.32 110.389 123.131C111.12 127.941 115.612 131.249 120.423 130.518Z" fill="white"/>
<path d="M76.7816 174.506L120.626 212.102L120.267 174.096L76.7816 174.506Z" fill="#8A919A"/>
<path d="M200.273 280.48L205.446 280.429L205.087 281.812H199.965L200.273 280.48Z" fill="#E3E3E4"/>
<path d="M293.083 281.044L288.832 281.095L288.474 279.763L292.827 279.712L293.083 281.044Z" fill="#E3E3E4"/>
<path d="M202.108 150.138L191.403 150.242L191.548 165.198L202.253 165.095L202.108 150.138Z" fill="#B9D6E8"/>
<path d="M202.066 163.494C198.89 163.545 196.278 160.984 196.278 157.808C196.226 154.633 198.787 152.021 201.963 152.021C205.139 151.969 207.751 154.53 207.751 157.706C207.802 160.882 205.241 163.494 202.066 163.494ZM201.963 152.994C199.3 152.994 197.2 155.196 197.2 157.808C197.2 160.472 199.402 162.572 202.014 162.572C204.678 162.521 206.778 160.37 206.778 157.757C206.778 155.094 204.627 152.943 201.963 152.994Z" fill="#B9D6E8"/>
<path d="M52.0423 133.479C52.0423 133.479 49.3789 141.213 48.2521 145.874L47.1765 145.977C47.1765 145.977 49.8399 134.299 51.5814 133.069L52.0423 133.479Z" fill="#3F8A59"/>
<path d="M53.8351 135.425C50.6082 136.757 48.6619 139.421 49.4301 141.418C50.1984 143.416 53.5277 143.928 56.7546 142.596C59.9815 141.265 61.9278 138.601 61.1595 136.604C60.34 134.606 57.0619 134.094 53.8351 135.425Z" fill="#57BC7B"/>
<path d="M48.1497 124.208C48.1497 124.208 46.9204 141.162 48.4058 146.079L46.9716 145.926C46.9716 145.926 45.2813 125.694 47.5862 123.952L48.1497 124.208Z" fill="#3F8A59"/>
<path d="M47.2789 139.062L44.6155 135.272L44.1545 136.091L47.1765 139.933L47.2789 139.062Z" fill="#3F8A59"/>
<path d="M47.1252 140.65C47.1252 140.65 45.4862 139.267 44.5642 139.369L44.6667 140.445C44.6667 140.445 46.9204 141.008 47.074 141.367C47.2277 141.726 47.1252 140.65 47.1252 140.65Z" fill="#3F8A59"/>
<path d="M51.8375 127.333C49.6863 129.587 49.0204 132.506 50.4034 133.838C51.7863 135.17 54.6546 134.401 56.8571 132.148C59.0083 129.894 59.6742 126.974 58.2912 125.643C56.9083 124.311 54.04 125.079 51.8375 127.333Z" fill="#57BC7B"/>
<path d="M48.1496 118.216C46.2545 121.084 46.1008 124.362 47.8423 125.489C49.5838 126.667 52.5545 125.284 54.4497 122.416C56.3448 119.547 56.4985 116.269 54.757 115.142C53.0155 113.964 50.0448 115.347 48.1496 118.216Z" fill="#57BC7B"/>
<path d="M42.3618 120.93C38.8789 119.138 35.191 119.394 34.1154 121.545C33.0398 123.645 34.9349 126.821 38.4179 128.613C41.9008 130.406 45.5887 130.15 46.6643 127.999C47.7911 125.899 45.8448 122.723 42.3618 120.93Z" fill="#57BC7B"/>
<path d="M42.0545 130.406C39.3398 128.921 36.4203 129.074 35.5496 130.713C34.6276 132.352 36.113 134.913 38.8276 136.348C41.5423 137.833 44.4618 137.679 45.3326 136.04C46.2545 134.401 44.7691 131.84 42.0545 130.406Z" fill="#57BC7B"/>
<path d="M40.6716 137.679C37.9057 137.884 35.7544 139.369 35.8569 141.06C35.9593 142.75 38.3154 143.979 41.0813 143.774C43.8472 143.569 45.9984 142.084 45.896 140.394C45.7935 138.704 43.4374 137.474 40.6716 137.679Z" fill="#57BC7B"/>
<path d="M47.996 125.643C47.996 125.643 51.1716 118.472 53.7326 117.038C53.7326 117.038 48.7643 119.394 47.1765 125.028L47.996 125.643Z" fill="#3F8A59"/>
<path d="M46.7667 128.357C46.7667 128.357 40.4667 123.696 37.5471 123.696C37.5471 123.696 43.0789 123.286 47.2789 127.333L46.7667 128.357Z" fill="#3F8A59"/>
<path d="M44.8204 136.86C44.8204 136.86 40.2618 132.147 37.8545 131.789C37.8545 131.789 42.3618 132.455 45.2301 136.399L44.8204 136.86Z" fill="#3F8A59"/>
<path d="M46.0496 140.65C46.0496 140.65 39.5959 139.421 37.3935 140.445C37.3935 140.445 41.4911 138.396 46.1009 139.984L46.0496 140.65Z" fill="#3F8A59"/>
<path d="M49.4302 141.47C49.4302 141.47 55.218 138.396 57.6254 138.755C57.6254 138.755 53.118 137.987 49.1741 140.855L49.4302 141.47Z" fill="#3F8A59"/>
<path d="M51.6326 134.657C51.6326 134.657 53.9887 128.562 56.0887 127.281C56.0887 127.281 51.9399 129.586 50.7619 134.299L51.6326 134.657Z" fill="#3F8A59"/>
<path d="M58.0351 166.516L39.6471 166.721C36.3691 164.211 35.3447 151.355 35.0886 146.848C35.0373 146.028 35.7032 145.311 36.5739 145.26L59.1619 145.004C59.879 145.004 60.5449 145.516 60.6473 146.233C61.8766 154.633 58.0351 166.516 58.0351 166.516Z" fill="#F2F6F7"/>
<path d="M58.0351 166.516L53.579 166.567C56.8058 157.655 55.4741 148.743 54.7058 145.106L59.162 145.055C59.879 145.055 60.5449 145.567 60.6473 146.284C61.8766 154.633 58.0351 166.516 58.0351 166.516Z" fill="#D5E5F1"/>
<path d="M346.19 46.3377C347.845 36.7776 341.437 27.6857 331.877 26.0304C322.317 24.3751 313.225 30.7832 311.57 40.3434C309.915 49.9035 316.323 58.9954 325.883 60.6507C335.443 62.306 344.535 55.8979 346.19 46.3377Z" fill="white"/>
<path d="M329.603 24.9954C339.745 25.4051 347.633 34.0101 347.172 44.1004C346.711 54.1907 338.157 62.1298 328.067 61.6688C317.925 61.2591 310.037 52.6541 310.498 42.5638C310.959 32.4735 319.513 24.5856 329.603 24.9954ZM328.169 60.081C337.389 60.4396 345.225 53.2688 345.584 44.0492C345.942 34.8296 338.771 26.993 329.552 26.6344C320.332 26.2759 312.496 33.4467 312.137 42.6663C311.779 51.8858 318.949 59.6713 328.169 60.081Z" fill="#2CC1DB"/>
<path d="M328.374 55.4712C328.835 55.4712 329.193 55.881 329.142 56.2907L329.04 58.442C329.04 58.9029 328.63 59.2615 328.22 59.2103C327.759 59.2103 327.401 58.8005 327.452 58.3907L327.554 56.2395C327.554 55.7785 327.913 55.4712 328.374 55.4712Z" fill="#ACC4DF"/>
<path d="M329.552 27.4026C330.013 27.4026 330.371 27.8124 330.32 28.2221L330.218 30.3733C330.218 30.8343 329.808 31.1929 329.398 31.1416C328.937 31.1416 328.579 30.7319 328.63 30.3221L328.732 28.1709C328.681 27.7611 329.091 27.4026 329.552 27.4026Z" fill="#ACC4DF"/>
<path d="M316.747 42.8199C316.747 43.2809 316.337 43.6394 315.927 43.5882L313.776 43.4858C313.315 43.4858 312.957 43.076 313.008 42.6662C313.008 42.2053 313.418 41.8467 313.827 41.8979L315.979 42.0004C316.388 42.0004 316.747 42.3589 316.747 42.8199Z" fill="#ACC4DF"/>
<path d="M344.764 43.9979C344.764 44.4589 344.355 44.8174 343.945 44.7662L341.793 44.6637C341.333 44.6637 340.974 44.254 341.025 43.8442C341.025 43.3832 341.435 43.0247 341.845 43.0759L343.996 43.1784C344.457 43.1784 344.815 43.5369 344.764 43.9979Z" fill="#ACC4DF"/>
<path d="M331.447 40.0028L324.327 49.8882C324.276 49.9907 324.123 49.8882 324.174 49.7858L330.064 38.9784C330.269 38.6199 330.679 38.3638 331.089 38.415H331.293C331.498 38.415 331.703 38.6198 331.703 38.8247V39.3881C331.652 39.593 331.549 39.7979 331.447 40.0028Z" fill="#2294A8"/>
<path d="M340.359 50.4004L325.403 39.6442C325.249 39.5417 325.045 39.4905 324.84 39.5929L324.276 39.849C323.969 40.0027 323.815 40.2588 323.764 40.6173V41.0783C323.764 41.2832 323.867 41.4369 324.02 41.5393L339.642 51.015H340.308L340.359 50.4004Z" fill="#2CC1DB"/>
<path d="M326.325 43.076C326.376 41.8467 327.401 40.8223 328.681 40.8735C329.91 40.9248 330.935 41.9492 330.884 43.2297C330.832 44.4589 329.808 45.4834 328.528 45.4321C327.247 45.3809 326.274 44.3565 326.325 43.076Z" fill="#2CC1DB"/>
<path d="M117.143 17.2611C118.577 17.2611 119.704 18.4392 119.704 19.9245V88.3031C119.704 89.6861 118.372 90.3007 117.655 89.3275L108.282 76.3177H36.6764C35.2422 76.3177 34.1154 75.1396 34.1154 73.6542V19.9245C34.1154 18.4392 35.2422 17.2611 36.6764 17.2611H117.143Z" fill="#B0D9E1"/>
<path d="M84.567 64.9469L86.8207 58.442C86.8207 58.442 83.3889 52.398 84.9255 50.759C86.4621 49.1712 86.3085 53.7298 86.3085 53.7298C86.3085 53.7298 86.8719 47.5834 87.9987 46.7126C89.1256 45.8419 92.8134 45.7394 90.9695 57.3664C89.1255 68.9933 89.3304 66.4323 89.3304 66.4323L84.567 64.9469Z" fill="url(#paint4_linear)"/>
<path d="M88.7671 76.369H77.3962C76.4743 75.0885 75.6548 73.9105 74.8865 72.7324C74.3743 71.9641 73.8621 71.1958 73.4011 70.4275C69.4572 63.9226 67.9718 59.1591 67.562 55.881C67.4596 55.1127 67.4084 54.3957 67.4596 53.781C67.4596 51.0664 68.2791 49.8883 68.2791 49.8883C68.3815 49.8883 68.484 49.8883 68.6376 49.8883C68.945 49.9395 69.2523 49.9908 69.5084 50.042C76.3206 52.0396 83.1841 68.8909 83.1841 68.8909L85.0792 62.7445L85.3353 62.7957L89.9451 63.6153L90.4061 63.7177C90.4061 63.7689 90.5598 68.225 88.7671 76.369Z" fill="#57BC7B"/>
<path d="M75.5523 69.4031C75.3987 70.7348 75.1426 71.8616 74.8865 72.7324C74.4767 74.1153 74.0669 74.8836 74.0669 74.8836C73.9645 75.3446 73.9133 75.8056 73.8621 76.2665C73.8621 76.3178 73.8621 76.3178 73.8621 76.369H51.2229C50.7619 73.6031 50.1472 71.3494 49.5326 69.6592C49.3789 69.1982 49.2253 68.7884 49.0716 68.4299C48.5082 67.047 48.0984 66.2787 48.0984 66.2787L50.557 51.6298C50.6082 51.3224 50.7619 51.0663 50.9668 50.8102C51.0692 50.6566 51.2229 50.5541 51.4277 50.4517C51.5814 50.4005 51.6838 50.298 51.8375 50.2468C52.0936 50.6054 52.3497 51.0151 52.7082 51.4761C52.8107 51.5785 52.9131 51.7322 52.9643 51.8346C55.0644 54.4981 58.701 57.7249 63.4644 57.4176C65.3596 57.3152 66.6913 56.7518 67.6132 55.9322C69.3035 54.4469 69.7645 52.2444 69.8157 50.4517C75.5011 58.0323 76.1158 64.8957 75.5523 69.4031Z" fill="#57BC7B"/>
<path d="M68.6376 49.6833C68.4328 52.1419 67.4084 56.137 63.4132 55.7273C59.2132 55.2663 55.0131 51.6297 53.0668 49.6833C59.3156 47.3272 66.384 49.0175 68.6376 49.6833Z" fill="url(#paint5_linear)"/>
<path d="M69.7645 50.4516C69.662 53.1663 68.6376 57.1102 63.4132 57.4176C57.6254 57.7249 53.579 52.9102 51.7863 50.2468C52.196 50.0419 52.657 49.837 53.0668 49.6833C55.0131 51.6297 59.2132 55.3175 63.4132 55.7273C67.4596 56.1371 68.4328 52.1419 68.6376 49.6833C69.0986 49.837 69.3547 49.9394 69.3547 49.9394C69.5084 50.0931 69.662 50.298 69.7645 50.4516Z" fill="#3F8A59"/>
<path opacity="0.46" d="M75.5523 69.403C75.3986 70.7347 75.1425 71.8615 74.8864 72.7322C74.4767 74.1152 74.0669 74.8835 74.0669 74.8835C73.9645 75.3445 73.9133 75.8054 73.862 76.2664C71.4547 75.3957 65.5132 73.8591 58.24 76.3689H51.2228C50.7618 73.603 50.1472 71.3493 49.5326 69.6591C52.0423 70.3761 64.8985 73.7567 73.4523 70.4786C74.1694 70.1713 74.8864 69.8127 75.5523 69.403Z" fill="#3F8A59"/>
<path d="M51.7351 63.3078C50.8131 64.8444 49.8911 66.6371 49.0204 68.3786C47.5862 71.2981 46.2545 74.2689 45.3326 76.3689H37.1886C38.1618 70.2225 43.7447 55.5736 49.3277 51.3735C49.8399 51.015 50.3521 50.8101 50.8643 50.7589C51.5302 50.7077 52.1448 50.9638 52.6058 51.4248C52.7082 51.5272 52.8107 51.6296 52.8619 51.7833C53.0156 52.0394 53.1692 52.3979 53.2204 52.7565C53.7839 55.3687 54.04 59.4151 51.7351 63.3078Z" fill="#57BC7B"/>
<path d="M70.5327 33.8563C70.5327 33.8563 63.9254 37.5442 60.5449 39.7978C59.2644 40.6174 58.4449 41.2832 58.5985 41.4369C58.7522 41.5905 58.6497 41.8466 58.4448 41.7954C56.857 41.4881 53.4253 40.0027 53.7326 32.1661C53.7326 32.0124 53.7326 31.8075 53.7326 31.6539C53.7326 31.6539 53.3229 31.91 52.8107 32.0636C52.657 32.1149 52.5033 32.1148 52.3497 32.1661C51.9399 32.2173 51.5302 32.0636 51.2741 31.6539C50.9155 30.988 50.9155 29.6051 51.7863 26.8392C51.7863 26.8392 55.0131 20.5904 59.9814 22.9465C59.9814 22.9465 62.0815 23.5611 61.1083 25.405C61.0571 25.5075 61.0059 25.6099 60.9546 25.7124C60.9034 25.7636 60.8522 25.866 60.801 25.9172C60.801 25.9172 60.801 25.9172 60.8522 25.9172C61.3644 25.8148 67.4596 24.688 70.7376 29.0929C70.6864 28.9904 73.0425 31.9612 70.5327 33.8563Z" fill="#3065AF"/>
<path d="M61.1083 25.2513C61.0571 25.3026 61.0059 25.405 60.9034 25.5587C60.8522 25.6099 60.801 25.7123 60.801 25.7635C59.7766 27.4538 56.7546 32.7295 56.6009 34.1124C56.4985 34.9831 58.5473 37.4929 60.4936 39.6954C59.2131 40.5149 58.3936 41.1808 58.5473 41.3344C58.701 41.4881 58.5985 41.7442 58.3936 41.6929C56.8058 41.3856 53.3741 39.9003 53.6814 32.0636C53.6814 31.9099 53.6814 31.7051 53.6814 31.5514C53.6814 31.5514 53.2716 31.8075 52.7594 31.9612C52.6058 32.0124 52.4521 32.0124 52.2985 32.0636C55.1668 30.8855 60.9546 25.6099 61.1083 25.2513Z" fill="#0C55A5"/>
<path d="M58.6497 40.9247L58.4448 49.5808C58.4448 50.1443 58.957 51.1175 59.3668 51.476C60.5961 52.4492 64.079 52.5516 65.001 49.6833C65.1546 49.2735 65.1546 48.8126 65.0522 48.3516L63.6693 40.9759L58.6497 40.9247Z" fill="url(#paint6_linear)"/>
<path d="M70.0718 30.2196C70.0718 30.2196 73.3498 45.0734 65.5644 46.2002C60.1351 47.0197 57.5229 39.2855 57.5229 39.2855C57.5229 39.2855 54.9619 38.8246 55.5765 36.366C56.1912 33.9074 59.2131 37.0318 59.2131 37.0318C59.2131 37.0318 60.1351 35.6489 63.4644 35.0343C68.6888 34.0611 67.2547 32.2684 70.0718 30.2196Z" fill="url(#paint7_linear)"/>
<path d="M68.1766 40.2075C68.4839 40.1563 68.74 40.0027 68.8937 39.7978C69.4059 39.0807 68.8425 37.8514 68.8425 37.8002C68.7912 37.6977 68.74 37.6978 68.6376 37.6978C68.5351 37.749 68.5351 37.8002 68.5351 37.9026C68.5351 37.9026 69.0473 39.0295 68.6376 39.5929C68.4327 39.849 68.0742 39.9514 67.562 39.9002C67.4595 39.9002 67.4083 39.9514 67.4083 40.0539C67.4083 40.1563 67.4595 40.2075 67.562 40.2075C67.7668 40.2587 67.9717 40.2587 68.1766 40.2075Z" fill="#BA8777"/>
<path d="M67.2035 43.1271C67.8693 42.9735 68.2279 42.4101 68.2279 42.4101C68.2791 42.3588 68.2279 42.2564 68.1767 42.2052C68.1254 42.154 68.023 42.2052 67.9718 42.2564C67.9718 42.2564 67.6645 42.7174 67.1523 42.8198C66.7425 42.9223 66.2303 42.7174 65.7181 42.3588C65.6669 42.3076 65.5644 42.3076 65.5132 42.4101C65.462 42.4613 65.462 42.5637 65.5644 42.6149C66.1279 43.0247 66.6913 43.2296 67.2035 43.1271Z" fill="#BA8777"/>
<path d="M69.662 35.854C69.7132 36.1101 69.8669 36.3149 70.0205 36.2637C70.1742 36.2637 70.2766 36.0076 70.2766 35.7515C70.2254 35.4954 70.0718 35.2905 69.9181 35.3418C69.7645 35.393 69.662 35.6491 69.662 35.854Z" fill="#BA8777"/>
<path d="M65.5644 36.2637C65.5644 36.5198 65.718 36.7247 65.9229 36.6734C66.0766 36.6734 66.2302 36.4686 66.179 36.2125C66.179 35.9564 66.0254 35.7515 65.8205 35.8027C65.6668 35.8027 65.5132 36.0076 65.5644 36.2637Z" fill="#BA8777"/>
<path d="M56.2424 39.9515C56.3448 39.9003 56.3448 39.8491 56.2936 39.7979C56.2424 39.7466 53.7326 36.0076 55.8326 30.0661C55.8326 30.0148 55.8326 29.9636 55.7814 29.9636C55.7302 29.9636 55.679 29.9636 55.679 30.0148C53.4765 36.0588 56.0887 39.8491 56.1399 39.9003C56.1912 39.9515 56.1912 39.9515 56.2424 39.9515Z" fill="#3065AF"/>
<path d="M71.4035 33.4977C71.2498 33.4465 71.0961 33.4465 70.9937 33.3953C70.84 33.3953 70.6864 33.3953 70.5839 33.3953C70.2254 33.4465 69.8669 33.5489 69.5083 33.7538C69.4571 33.805 69.3547 33.8562 69.3034 33.9075C68.9449 34.1636 68.6376 34.5733 68.4327 34.9831C68.3815 35.0855 68.3303 35.188 68.3303 35.3416C68.279 35.4953 68.2278 35.7002 68.2278 35.8538C68.1766 35.8026 68.1254 35.8026 68.0229 35.8026C67.8693 35.8026 67.7156 35.8538 67.562 35.9563C67.562 35.8026 67.5107 35.7002 67.5107 35.5465C67.3571 34.9319 66.9985 34.4197 66.4863 34.0611C66.2815 33.9075 66.0766 33.805 65.8205 33.7538C64.6424 33.4465 63.4131 34.0611 62.9009 35.188C62.8497 35.3416 62.7985 35.4953 62.7473 35.6489C62.6961 35.8538 62.6448 36.0587 62.6448 36.2636C62.3887 36.1099 61.9278 35.905 61.3643 35.7002C60.0326 35.1367 58.1887 34.5733 56.8058 34.8806C56.4985 34.9319 56.2424 35.0343 56.0375 35.188C55.6277 35.4441 55.3204 35.8026 55.1667 36.2636C55.1155 36.366 55.0643 36.5197 55.0643 36.6733C55.0131 36.9294 54.9619 37.2367 54.9619 37.5441C54.9619 37.6465 55.0131 37.6977 55.1155 37.6977H55.1667C55.2179 37.6977 55.2692 37.6977 55.2692 37.6465C55.3204 37.5953 55.3204 37.5441 55.3204 37.4929C55.3204 37.3904 55.3204 37.288 55.3204 37.1855C55.3716 36.366 55.6789 35.7514 56.2424 35.4441C56.4472 35.2904 56.7033 35.2392 57.0107 35.188C58.1887 34.9831 59.7765 35.4441 60.9546 35.905C61.8253 36.2124 62.4912 36.5709 62.6961 36.6733C62.7473 37.1855 62.9522 37.6977 63.2595 38.1075C63.5668 38.466 63.9766 38.7221 64.4375 38.8758C65.7693 39.2343 67.1522 38.4148 67.5107 37.0319C67.562 36.827 67.6132 36.6221 67.6132 36.4685C67.6132 36.4685 67.6644 36.4685 67.6644 36.4172C67.7668 36.3148 67.8693 36.2124 68.0229 36.2124C68.1254 36.2124 68.2278 36.3148 68.2278 36.366C68.279 36.8782 68.4327 37.3392 68.74 37.749C68.7912 37.8002 68.8425 37.9026 68.8937 37.9538C69.201 38.2612 69.5595 38.5172 69.9693 38.6197C70.2254 38.6709 70.4303 38.7221 70.6864 38.7221C71.762 38.6709 72.7352 37.9026 73.0937 36.7758C73.4522 35.2904 72.7352 33.8562 71.4035 33.4977ZM67.1522 36.8782C66.7937 38.1075 65.6156 38.8246 64.4888 38.5173C64.1302 38.4148 63.7717 38.2099 63.5156 37.9026C63.0034 37.3392 62.8497 36.5197 63.0546 35.7002C63.1058 35.4441 63.2083 35.2392 63.3619 35.0343C63.8741 34.2148 64.8473 33.805 65.718 34.0611C65.8717 34.1123 65.9741 34.1636 66.1278 34.2148C66.6912 34.5221 67.0498 35.0855 67.2034 35.7002C67.2546 36.1099 67.2546 36.4685 67.1522 36.8782ZM72.7352 36.6221C72.4791 37.5953 71.6083 38.2611 70.6864 38.3124C70.4815 38.3124 70.2766 38.3124 70.0717 38.2612C68.9449 37.9538 68.3302 36.6733 68.6888 35.4953C68.7912 35.1879 68.8937 34.9318 69.0473 34.727C69.4059 34.2148 70.0205 33.8562 70.5839 33.805C70.84 33.805 71.0449 33.805 71.301 33.8562C72.4278 34.1636 73.0937 35.3928 72.7352 36.6221Z" fill="#0E2A47"/>
<path d="M69.4059 33.9075C69.4571 33.9075 69.5084 33.8563 69.5084 33.805C69.7645 31.6538 66.7425 30.9367 66.5888 30.8855C66.4864 30.8855 66.3839 30.9367 66.3839 30.9879C66.3839 31.0904 66.4352 31.1928 66.4864 31.1928C66.5376 31.1928 69.3547 31.8587 69.1498 33.7026C69.1498 33.805 69.201 33.8563 69.3035 33.9075C69.3547 33.9587 69.4059 33.9587 69.4059 33.9075Z" fill="#3065AF"/>
<path d="M68.0742 34.6246C68.1254 34.6246 68.1766 34.5734 68.1766 34.5221C68.8425 32.4733 66.0254 31.1416 65.9229 31.0904C65.8205 31.0392 65.7181 31.0904 65.7181 31.1928C65.6668 31.2953 65.7181 31.3977 65.8205 31.3977C65.8717 31.3977 68.4839 32.627 67.9205 34.4197C67.8693 34.5221 67.9205 34.6246 68.023 34.6246C67.9717 34.6246 68.023 34.6246 68.0742 34.6246Z" fill="#3065AF"/>
<path d="M57.318 39.3369C57.6009 39.3369 57.8302 39.1076 57.8302 38.8247C57.8302 38.5418 57.6009 38.3125 57.318 38.3125C57.0351 38.3125 56.8058 38.5418 56.8058 38.8247C56.8058 39.1076 57.0351 39.3369 57.318 39.3369Z" fill="white"/>
<path d="M251.185 2.71465V56.9566C251.185 58.442 250.007 59.6712 248.624 59.6712H176.302L166.877 72.7835C166.16 73.8079 164.829 73.1421 164.829 71.7591V2.71465C164.829 1.22927 166.007 0 167.39 0H248.573C250.059 0.0512199 251.185 1.22927 251.185 2.71465Z" fill="#B0D9E1"/>
<path d="M248.573 59.6711H241.249L239.456 55.0613L239.149 54.293L238.79 53.4223C238.79 53.3199 238.79 53.2686 238.79 53.1662C238.944 47.3783 242.222 42.5125 242.222 42.5125C243.093 42.8198 244.322 45.6881 245.5 49.3247C245.654 49.7857 245.807 50.2467 245.961 50.7589C246.012 50.9637 246.115 51.2198 246.166 51.4247C247.088 54.1394 247.907 57.1101 248.573 59.6711Z" fill="url(#paint8_linear)"/>
<path d="M221.478 3.48293C221.478 3.48293 227.727 2.45853 231.415 8.86103C232.9 11.422 233.463 14.444 233.054 17.4148L233.105 27.1465C233.105 27.1465 217.995 27.6075 212.361 25.866C212.361 25.866 213.283 3.53417 217.636 3.94392C220.197 4.1488 221.478 3.48293 221.478 3.48293Z" fill="#4D3644"/>
<path d="M237.561 33.3954C236.793 36.2637 235.563 42.2052 234.539 48.7102C233.976 52.3468 233.515 56.137 233.207 59.62H209.595C210.209 52.0394 210.312 42.0003 208.263 32.9856C208.058 32.0637 208.519 31.1417 209.288 30.6295C210.312 29.9124 211.951 28.9393 214.205 28.171C218.353 26.7368 224.551 26.1222 232.593 29.1954C233.771 29.6563 234.949 30.1685 236.178 30.7832C236.332 30.8344 236.485 30.9368 236.588 31.0393C236.793 31.1929 236.946 31.3466 237.049 31.5003C237.202 31.7051 237.356 31.9612 237.458 32.1661C237.612 32.6271 237.663 33.0369 237.561 33.3954Z" fill="#9664A9"/>
<path d="M214.205 28.171C222.758 47.276 232.593 29.1954 232.593 29.1954C224.602 26.1222 218.405 26.788 214.205 28.171Z" fill="#684575"/>
<path d="M226.754 20.3856L226.958 28.3759C226.958 28.8881 226.497 29.8101 226.088 30.1174C224.961 31.0394 221.734 31.0906 220.914 28.4272C220.812 28.0174 220.761 27.6076 220.863 27.1979L222.144 20.3856H226.754Z" fill="url(#paint9_linear)"/>
<path d="M216.253 10.5513C216.253 10.5513 213.231 24.227 220.402 25.3026C225.371 26.0709 227.778 18.9001 227.778 18.9001C227.778 18.9001 230.185 18.4904 229.571 16.2367C229.007 13.983 226.241 16.8513 226.241 16.8513C226.241 16.8513 225.422 15.5708 222.297 15.0074C217.483 14.0854 218.814 12.3952 216.253 10.5513Z" fill="url(#paint10_linear)"/>
<path d="M217.995 19.7197C217.688 19.6684 217.483 19.5148 217.329 19.3099C216.868 18.6441 217.38 17.5172 217.38 17.466C217.431 17.4148 217.483 17.3636 217.585 17.4148C217.636 17.466 217.688 17.5172 217.636 17.6196C217.636 17.6196 217.175 18.6953 217.534 19.2075C217.688 19.4636 218.046 19.566 218.507 19.5148C218.61 19.5148 218.661 19.566 218.661 19.6172C218.661 19.7197 218.61 19.7709 218.558 19.7709C218.353 19.7709 218.149 19.7709 217.995 19.7197Z" fill="#BA8777"/>
<path d="M218.866 22.4342C218.251 22.3317 217.944 21.7683 217.892 21.7683C217.841 21.7171 217.892 21.6147 217.944 21.5635C217.995 21.5122 218.097 21.5635 218.149 21.6147C218.149 21.6147 218.405 22.0757 218.917 22.1269C219.327 22.1781 219.736 22.0756 220.197 21.7171C220.249 21.6659 220.351 21.6659 220.402 21.7683C220.453 21.8195 220.453 21.922 220.351 21.9732C219.839 22.3317 219.327 22.4854 218.866 22.4342Z" fill="#BA8777"/>
<path d="M216.868 16.4415C216.817 16.6464 216.663 16.8512 216.51 16.8C216.356 16.7488 216.253 16.5439 216.305 16.339C216.356 16.0829 216.51 15.9293 216.663 15.9805C216.817 15.9805 216.919 16.1854 216.868 16.4415Z" fill="#BA8777"/>
<path d="M221.068 17.0562C221.017 17.2611 220.863 17.466 220.71 17.4148C220.556 17.3635 220.453 17.1587 220.505 16.9538C220.556 16.7489 220.71 16.544 220.863 16.5952C221.017 16.6465 221.068 16.8513 221.068 17.0562Z" fill="#BA8777"/>
<path d="M233.976 48.8125C233.976 48.8125 223.783 50.8101 220.966 48.5052C220.966 48.5052 213.488 48.454 210.722 47.4808C210.414 47.3784 218.097 50.7077 220.556 49.7857C220.607 49.7857 229.212 51.5784 233.976 48.8125Z" fill="#684575"/>
<path d="M237.049 31.5003C239.507 35.9052 246.422 48.3516 246.678 50.4004L238.688 54.5492L231.568 44.4589C230.646 43.1784 230.493 41.4369 231.21 40.0028L235.41 31.449C235.768 30.8344 236.69 30.8344 237.049 31.5003Z" fill="#9664A9"/>
<path d="M170.156 22.0758C172.409 21.6148 175.738 24.1758 175.738 24.1758C175.738 24.1758 174.458 21.4099 175.943 22.0245C177.326 22.6392 178.402 27.6587 178.504 28.2734L196.175 38.4661L206.624 34.01C212.514 33.8563 209.646 40.0027 209.646 40.0027C208.98 42.154 201.092 43.8442 196.124 45.2784C195.202 45.5345 194.229 45.3296 193.512 44.6638L176.148 29.9636C176.148 30.0149 165.699 22.9977 170.156 22.0758Z" fill="url(#paint11_linear)"/>
<path d="M246.115 49.0176L237.971 53.6786C237.663 53.8835 237.51 54.2933 237.715 54.6006L238.022 55.1128C238.227 55.4201 238.585 55.5225 238.944 55.3689L247.088 50.964C247.395 50.8103 247.498 50.4518 247.395 50.1444L247.088 49.3761C246.934 48.9664 246.473 48.8127 246.115 49.0176Z" fill="#E8EBEE"/>
<path d="M217.688 38.1588C217.329 40.9247 204.166 45.0223 201.656 45.0223L198.378 36.6222L209.134 30.6295C210.517 29.8612 212.207 29.9124 213.59 30.7319L217.688 38.1588Z" fill="#9664A9"/>
<path d="M203.295 44.7662L199.556 36.2637C199.402 35.9051 198.941 35.7002 198.583 35.9051L198.122 36.11C197.763 36.2637 197.609 36.6734 197.763 37.032L201.246 45.4832C201.4 45.8418 201.758 45.9954 202.117 45.893L202.834 45.7393C203.244 45.6881 203.5 45.1759 203.295 44.7662Z" fill="#E8EBEE"/>
<path d="M229.98 15.1611C228.393 14.1879 223.834 16.0318 222.963 16.4928C222.963 16.3392 222.912 16.1343 222.861 15.9806C222.553 14.8026 221.375 14.0855 220.249 14.3416C219.429 14.5464 218.814 15.3148 218.763 16.1855C218.661 16.083 218.507 16.0318 218.405 16.083C218.353 16.083 218.302 16.083 218.251 16.1343C218.251 15.9806 218.2 15.827 218.2 15.7245C217.892 14.5465 216.714 13.8294 215.588 14.0855C214.461 14.3928 213.846 15.5708 214.153 16.8001C214.461 17.9782 215.639 18.6953 216.766 18.4392C217.636 18.2343 218.2 17.4148 218.251 16.544C218.302 16.4928 218.353 16.4416 218.456 16.4416C218.558 16.4416 218.661 16.544 218.763 16.5952C218.763 16.5952 218.814 16.5952 218.814 16.6465C218.814 16.8001 218.866 16.9538 218.866 17.1587C219.173 18.3367 220.351 19.0538 221.478 18.7977C222.297 18.5928 222.912 17.8245 222.963 16.9538C223.475 16.6977 228.29 14.5977 229.827 15.5708C230.339 15.8782 230.595 16.4928 230.595 17.3123C230.595 17.4148 230.646 17.466 230.749 17.466H230.8C230.851 17.466 230.902 17.4148 230.902 17.3123C230.902 16.2367 230.595 15.5709 229.98 15.1611ZM216.714 18.0806C215.741 18.3367 214.768 17.7221 214.512 16.6465C214.256 15.6221 214.768 14.5464 215.741 14.2903C216.714 14.0342 217.688 14.6489 217.944 15.7245C218.2 16.8001 217.636 17.8245 216.714 18.0806ZM221.375 18.3879C220.402 18.644 219.429 18.0294 219.173 16.9538C218.917 15.9294 219.429 14.8538 220.402 14.5977C221.375 14.3416 222.349 14.9562 222.605 16.0318C222.912 17.0562 222.349 18.1318 221.375 18.3879Z" fill="#0E2A47"/>
<path d="M227.676 18.5928C227.676 18.8489 227.88 19.0538 228.136 19.0538C228.393 19.0538 228.597 18.8489 228.597 18.5928C228.597 18.3367 228.393 18.1318 228.136 18.1318C227.88 18.1318 227.676 18.3367 227.676 18.5928Z" fill="white"/>
<path d="M268.805 91.786C273.048 91.786 276.488 88.3462 276.488 84.103C276.488 79.8598 273.048 76.42 268.805 76.42C264.562 76.42 261.122 79.8598 261.122 84.103C261.122 88.3462 264.562 91.786 268.805 91.786Z" fill="#9664A9"/>
<path d="M267.678 87.0738C267.525 87.0738 267.371 87.0738 267.269 86.9201L265.476 85.1786C265.271 84.9737 265.271 84.6664 265.476 84.4615C265.681 84.2567 265.988 84.2567 266.193 84.4615L267.678 85.8957L272.288 82.1566C272.493 82.003 272.8 82.003 273.005 82.2079C273.159 82.4128 273.159 82.7201 272.954 82.9249L267.986 86.9201C267.832 87.0226 267.729 87.0738 267.678 87.0738Z" fill="#FAFAFA"/>
<defs>
<linearGradient id="paint0_linear" x1="151.256" y1="119.954" x2="164.068" y2="111.235" gradientUnits="userSpaceOnUse">
<stop stop-color="#8E4250"/>
<stop offset="1" stop-color="#945C5C"/>
</linearGradient>
<linearGradient id="paint1_linear" x1="212.178" y1="119.312" x2="209.413" y2="97.7474" gradientUnits="userSpaceOnUse">
<stop stop-color="#8E4250"/>
<stop offset="1" stop-color="#945C5C"/>
</linearGradient>
<linearGradient id="paint2_linear" x1="218.565" y1="93.1763" x2="198.333" y2="97.8354" gradientUnits="userSpaceOnUse">
<stop stop-color="#8E4250"/>
<stop offset="1" stop-color="#945C5C"/>
</linearGradient>
<linearGradient id="paint3_linear" x1="270.971" y1="117.584" x2="258.159" y2="108.865" gradientUnits="userSpaceOnUse">
<stop stop-color="#8E4250"/>
<stop offset="1" stop-color="#945C5C"/>
</linearGradient>
<linearGradient id="paint4_linear" x1="94.2268" y1="53.2324" x2="82.0117" y2="60.7991" gradientUnits="userSpaceOnUse">
<stop stop-color="#F9B49E"/>
<stop offset="1" stop-color="#FFEAD0"/>
</linearGradient>
<linearGradient id="paint5_linear" x1="61.0401" y1="43.423" x2="60.6701" y2="56.1501" gradientUnits="userSpaceOnUse">
<stop stop-color="#F9B49E"/>
<stop offset="1" stop-color="#FFEAD0"/>
</linearGradient>
<linearGradient id="paint6_linear" x1="61.9397" y1="42.9458" x2="61.5481" y2="56.4168" gradientUnits="userSpaceOnUse">
<stop stop-color="#F9B49E"/>
<stop offset="1" stop-color="#FFEAD0"/>
</linearGradient>
<linearGradient id="paint7_linear" x1="55.2886" y1="35.5305" x2="76.8373" y2="40.5153" gradientUnits="userSpaceOnUse">
<stop stop-color="#F9B49E"/>
<stop offset="1" stop-color="#FFEAD0"/>
</linearGradient>
<linearGradient id="paint8_linear" x1="238.849" y1="51.0676" x2="248.596" y2="51.0676" gradientUnits="userSpaceOnUse">
<stop stop-color="#F9B49E"/>
<stop offset="1" stop-color="#FFEAD0"/>
</linearGradient>
<linearGradient id="paint9_linear" x1="224.715" y1="19.9178" x2="223.195" y2="34.4008" gradientUnits="userSpaceOnUse">
<stop stop-color="#F9B49E"/>
<stop offset="1" stop-color="#FFEAD0"/>
</linearGradient>
<linearGradient id="paint10_linear" x1="229.851" y1="15.4174" x2="209.986" y2="20.0129" gradientUnits="userSpaceOnUse">
<stop stop-color="#F9B49E"/>
<stop offset="1" stop-color="#FFEAD0"/>
</linearGradient>
<linearGradient id="paint11_linear" x1="196.785" y1="45.85" x2="180.67" y2="9.38572" gradientUnits="userSpaceOnUse">
<stop stop-color="#F9B49E"/>
<stop offset="1" stop-color="#FFEAD0"/>
</linearGradient>
</defs>
</svg>
